<?xml version="1.0" standalone="no"?>
<!DOCTYPE svg PUBLIC "-//W3C//DTD SVG 20010904//EN"
 "http://www.w3.org/TR/2001/REC-SVG-20010904/DTD/svg10.dtd">
<svg version="1.0" xmlns="http://www.w3.org/2000/svg"
 width="500.000000pt" height="500.000000pt" viewBox="0 0 500.000000 500.000000"
 preserveAspectRatio="xMidYMid meet">
<metadata>
Created by potrace 1.14, written by Peter Selinger 2001-2017
</metadata>
<g transform="translate(0.000000,500.000000) scale(0.100000,-0.100000)"
fill="#000000" stroke="none">
<path d="M2397 3180 c-154 -49 -396 -239 -453 -357 -24 -49 -26 -62 -22 -137
5 -73 11 -93 47 -162 37 -72 98 -156 180 -249 l31 -36 77 3 77 3 2 128 1 128
-60 -2 -61 -3 -29 89 -30 88 23 17 24 18 -21 47 c-14 32 -21 72 -22 125 -2 74
0 80 23 95 17 11 43 15 90 14 91 -3 135 -31 127 -81 -2 -14 11 -8 61 28 93 66
180 153 184 182 10 65 -131 100 -249 62z"/>
<path d="M2998 2765 c-2 -2 -43 -5 -93 -9 -49 -3 -113 -9 -141 -12 -28 -3
-112 -6 -185 -7 l-134 -2 -115 -69 c-63 -38 -117 -71 -120 -73 -2 -2 14 -2 35
1 22 3 74 8 115 12 l75 6 -3 -186 -4 -186 114 0 113 0 3 192 c2 106 5 195 7
199 5 6 39 9 185 13 150 5 273 -44 361 -143 60 -67 86 -119 101 -200 l12 -61
108 0 108 0 1 33 c9 232 -108 403 -321 468 -52 15 -212 33 -222 24z"/>
<path d="M682 2158 c-9 -4 -11 -7 -5 -7 10 -1 12 -25 9 -96 -3 -94 -3 -95 20
-95 13 0 24 5 24 11 0 5 -4 7 -10 4 -6 -4 -9 6 -9 22 3 51 10 65 30 60 10 -3
23 0 28 7 8 9 2 11 -22 8 -32 -4 -33 -3 -33 37 0 41 0 41 37 41 21 0 40 4 43
9 6 10 -86 9 -112 -1z"/>
<path d="M855 2163 c-6 -2 -9 -38 -7 -90 3 -98 12 -113 68 -113 42 0 53 17 12
18 -17 0 -36 6 -42 12 -12 12 -16 149 -4 156 21 13 1 27 -27 17z"/>
<path d="M990 2160 c-14 -4 -20 -8 -14 -9 12 -1 14 -144 2 -156 -13 -14 5 -35
29 -35 19 0 23 3 16 13 -12 14 -11 166 0 185 9 13 4 14 -33 2z"/>
<path d="M1100 2168 c0 -2 -2 -49 -3 -106 l-2 -102 47 0 c26 0 50 5 54 11 5 8
-6 10 -33 8 l-40 -4 3 85 c2 47 6 91 9 98 2 7 -4 12 -15 12 -11 0 -20 -1 -20
-2z"/>
<path d="M1250 2160 c-11 -7 -12 -10 -2 -10 11 0 13 -20 10 -95 l-3 -95 47 0
c26 0 50 5 54 11 4 7 -6 10 -32 7 l-39 -3 0 60 c0 33 3 77 6 98 5 30 3 37 -10
37 -9 0 -23 -5 -31 -10z"/>
<path d="M1540 2148 c-49 -33 -48 -66 3 -93 25 -14 40 -30 45 -50 8 -29 9 -30
20 -8 16 30 8 46 -37 71 -22 12 -41 29 -45 37 -8 21 22 46 53 43 30 -4 46 16
16 20 -12 2 -36 -8 -55 -20z"/>
<path d="M1657 2158 c-13 -8 -6 -10 43 -12 25 -1 25 -1 24 -93 -1 -84 0 -93
17 -93 10 0 21 5 24 10 4 6 1 9 -5 8 -9 -2 -12 19 -11 77 2 43 5 83 7 87 3 4
20 8 39 8 19 0 36 4 40 9 6 11 -161 10 -178 -1z"/>
<path d="M2144 2156 c-17 -7 -40 -26 -52 -41 -65 -82 25 -187 123 -145 15 7
10 9 -23 9 -57 1 -92 34 -92 89 0 58 30 85 89 80 25 -2 48 2 51 7 8 16 -61 16
-96 1z"/>
<path d="M2299 2163 c-1 -5 -1 -12 0 -17 6 -27 3 -165 -3 -175 -5 -7 2 -11 18
-11 14 0 28 5 32 12 5 7 2 9 -7 6 -15 -6 -16 6 -6 155 2 30 -1 37 -15 37 -10
0 -19 -3 -19 -7z"/>
<path d="M2391 2161 c-11 -7 -11 -9 0 -14 10 -3 5 -14 -18 -39 -18 -19 -33
-41 -33 -50 0 -19 84 -98 104 -98 29 0 26 19 -6 34 -18 9 -44 32 -58 52 -21
31 -22 38 -10 48 8 6 28 26 44 44 26 28 27 32 10 32 -10 0 -25 -4 -33 -9z"/>
<path d="M2608 2159 c-11 -7 -11 -9 0 -9 10 0 13 -21 10 -95 l-3 -95 40 0 c88
0 158 75 136 143 -7 19 -23 40 -36 47 -29 15 -128 21 -147 9z m116 -20 c69
-32 51 -153 -24 -160 -59 -5 -59 -6 -55 84 2 45 4 83 4 85 2 7 53 1 75 -9z"/>
<path d="M2859 2165 c0 0 -1 -46 -2 -103 l-2 -102 42 0 c23 0 44 4 47 8 2 4
-10 6 -28 4 -32 -4 -32 -4 -31 40 1 38 4 43 26 46 38 6 48 23 11 18 -22 -2
-32 1 -33 10 -5 58 -4 59 31 62 59 6 56 20 -4 19 -31 -1 -56 -2 -57 -2z"/>
<path d="M3014 2163 c-8 -3 -6 -15 6 -41 10 -20 28 -65 40 -100 20 -53 25 -60
38 -50 17 14 82 145 82 165 0 7 5 13 10 13 6 0 10 4 10 9 0 5 -8 8 -17 6 -10
-2 -25 -4 -33 -5 -10 -1 -11 -3 -2 -7 6 -2 12 -12 12 -20 0 -25 -52 -135 -60
-126 -10 12 -50 128 -50 145 0 14 -14 18 -36 11z"/>
<path d="M3242 2158 c-9 -4 -11 -7 -4 -7 9 -1 12 -25 10 -96 l-3 -95 48 0 c26
0 47 4 47 8 0 4 -15 6 -34 4 -33 -4 -35 -3 -31 24 2 16 4 37 4 47 1 12 9 17
31 17 17 0 30 5 30 11 0 6 -9 9 -19 6 -28 -7 -43 6 -45 42 -2 30 0 31 35 31
21 0 40 4 43 9 6 10 -86 9 -112 -1z"/>
<path d="M3410 2160 c-11 -7 -12 -10 -2 -10 11 0 13 -20 10 -95 l-3 -95 47 0
c26 0 50 5 54 11 5 8 -6 10 -34 7 l-41 -3 5 88 c2 49 6 93 10 98 7 12 -27 11
-46 -1z"/>
<path d="M3640 2163 c-31 -12 -70 -58 -76 -91 -8 -42 16 -94 50 -110 26 -12
89 7 118 35 41 42 39 125 -3 152 -26 15 -67 22 -89 14z m67 -37 c22 -20 28
-32 27 -65 -1 -25 -9 -50 -19 -61 -25 -27 -76 -26 -102 3 -49 52 -22 147 41
147 14 0 37 -11 53 -24z"/>
<path d="M3818 2159 c-10 -7 -11 -9 0 -9 11 0 12 -20 8 -95 -5 -88 -4 -95 14
-95 10 0 22 5 26 12 4 7 3 8 -5 4 -16 -10 -13 160 3 173 14 11 56 -4 57 -21 2
-26 -3 -53 -13 -66 -8 -9 -7 -11 4 -7 26 10 43 52 32 83 -9 24 -14 27 -61 28
-28 1 -57 -2 -65 -7z"/>
<path d="M4012 2160 c-4 -3 -7 -49 -7 -103 l0 -97 50 2 c42 1 44 2 13 5 -33 4
-36 7 -33 31 2 15 4 35 4 45 1 12 9 17 31 17 17 0 30 5 30 11 0 7 -10 9 -25 7
-29 -6 -36 2 -39 43 -2 27 0 29 35 29 21 0 40 4 43 9 6 8 -91 10 -102 1z"/>
<path d="M4174 2159 c-11 -4 -13 -8 -6 -8 11 -1 13 -21 10 -96 -3 -85 -2 -95
14 -95 9 0 20 5 23 10 3 6 2 10 -4 10 -5 0 -8 34 -7 83 2 68 5 83 20 85 44 9
63 -55 25 -82 -22 -15 -22 -15 23 -62 32 -33 50 -45 62 -41 14 6 9 15 -30 50
l-47 44 21 21 c58 58 -16 115 -104 81z"/>
<path d="M1924 2123 c-9 -21 -28 -66 -44 -100 -27 -58 -28 -63 -10 -63 10 0
22 4 25 10 4 6 -1 7 -10 3 -16 -5 -16 -4 -1 26 9 17 22 31 29 31 6 0 21 3 33
6 18 5 23 0 29 -28 4 -18 7 -36 6 -40 -2 -12 47 -9 54 2 4 6 1 9 -6 8 -13 -3
-29 33 -54 125 -9 31 -21 57 -26 57 -6 0 -17 -17 -25 -37z m26 -27 c0 -8 3
-21 6 -30 5 -12 0 -16 -19 -16 -24 0 -25 2 -14 30 12 31 27 40 27 16z"/>
<path d="M1494 1979 c-3 -6 -3 -13 0 -16 11 -11 67 -6 79 7 10 10 9 12 -6 7
-9 -4 -28 -2 -42 3 -16 6 -27 6 -31 -1z"/>
<path d="M2429 1871 c-1 -3 -3 -53 -4 -111 -5 -163 -16 -431 -20 -475 -13
-137 -17 -166 -26 -225 -14 -81 -27 -102 -86 -137 -60 -35 -52 -37 127 -31
119 5 144 9 215 35 74 28 255 110 255 116 0 1 -66 1 -147 -1 -81 -2 -158 0
-170 3 l-23 5 24 38 c43 65 49 111 62 472 6 160 8 278 5 306 -1 11 -210 16
-212 5z"/>
<path d="M3175 1823 c-57 -65 -131 -109 -198 -118 -73 -10 -192 -69 -137 -67
147 4 324 82 465 205 l40 35 -61 -1 c-62 -1 -62 -1 -109 -54z"/>
<path d="M1831 1763 c-49 -50 -97 -108 -110 -135 -20 -42 -21 -50 -9 -75 17
-36 72 -55 163 -55 124 -1 223 39 360 142 82 62 90 71 92 104 2 35 1 35 -20
21 -85 -56 -237 -67 -324 -23 -23 11 -48 60 -46 90 3 32 -17 19 -106 -69z"/>
</g>
</svg>
